<svg width="120" height="57" viewBox="0 0 120 57" fill="none" xmlns="http://www.w3.org/2000/svg">
<path d="M58.4105 30.8441L62.3332 32.8764C61.513 33.9466 60.4848 34.8062 59.2485 35.4552C58.0123 36.1041 56.6631 36.4286 55.201 36.4286C53.5606 36.4286 52.0628 36.0244 50.7077 35.2161C49.3645 34.4077 48.2887 33.3261 47.4804 31.9713C46.684 30.6051 46.2858 29.0965 46.2858 27.4457C46.2858 26.1933 46.5176 25.0263 46.9812 23.9447C47.4447 22.8517 48.0807 21.8954 48.889 21.0756C49.7092 20.2445 50.6602 19.5956 51.7419 19.1288C52.8236 18.662 53.9766 18.4286 55.201 18.4286C56.6631 18.4286 58.0123 18.7531 59.2485 19.402C60.4848 20.051 61.513 20.9219 62.3332 22.0149L58.4105 24.0301C57.9945 23.5747 57.5011 23.2218 56.9306 22.9713C56.3719 22.7208 55.7954 22.5956 55.201 22.5956C54.3451 22.5956 53.5725 22.8233 52.883 23.2787C52.1936 23.7227 51.6468 24.3147 51.2426 25.0548C50.8385 25.7834 50.6364 26.5804 50.6364 27.4457C50.6364 28.2996 50.8385 29.0965 51.2426 29.8366C51.6468 30.5652 52.1936 31.1515 52.883 31.5956C53.5725 32.0396 54.3451 32.2616 55.201 32.2616C55.8191 32.2616 56.4075 32.1364 56.9662 31.8859C57.5249 31.624 58.0063 31.2768 58.4105 30.8441Z" fill="#101010"/>
<path d="M72.8225 36.4286C71.1821 36.4286 69.6844 36.0244 68.3293 35.2161C66.986 34.4077 65.9103 33.3261 65.1019 31.9713C64.3055 30.6051 63.9073 29.0965 63.9073 27.4457C63.9073 26.1933 64.1391 25.0263 64.6027 23.9447C65.0663 22.8517 65.7022 21.8954 66.5105 21.0756C67.3308 20.2445 68.2817 19.5956 69.3634 19.1288C70.4451 18.662 71.5982 18.4286 72.8225 18.4286C74.4629 18.4286 75.9548 18.8328 77.298 19.6411C78.6531 20.4495 79.7289 21.5367 80.5253 22.903C81.3336 24.2692 81.7378 25.7834 81.7378 27.4457C81.7378 28.6867 81.506 29.8479 81.0424 30.9295C80.5788 32.0111 79.9369 32.9675 79.1167 33.7986C78.3084 34.6183 77.3634 35.2616 76.2817 35.7284C75.2118 36.1952 74.0588 36.4286 72.8225 36.4286ZM72.8225 32.2616C73.6903 32.2616 74.4689 32.0396 75.1583 31.5956C75.8478 31.1515 76.3886 30.5652 76.7809 29.8366C77.1851 29.1079 77.3871 28.3109 77.3871 27.4457C77.3871 26.5576 77.1791 25.7493 76.7631 25.0206C76.3589 24.2806 75.8062 23.6942 75.1048 23.2616C74.4154 22.8176 73.6546 22.5956 72.8225 22.5956C71.9667 22.5956 71.194 22.8176 70.5046 23.2616C69.8151 23.7056 69.2683 24.2977 68.8642 25.0377C68.46 25.7777 68.2579 26.5804 68.2579 27.4457C68.2579 28.3451 68.466 29.1591 68.882 29.8878C69.298 30.6164 69.8508 31.1971 70.5402 31.6297C71.2416 32.051 72.0023 32.2616 72.8225 32.2616Z" fill="#101010"/>
<path d="M95.6386 30.8441L99.5613 32.8764C98.7411 33.9466 97.7129 34.8062 96.4766 35.4552C95.2404 36.1041 93.8912 36.4286 92.4291 36.4286C90.7887 36.4286 89.2909 36.0244 87.9358 35.2161C86.5926 34.4077 85.5168 33.3261 84.7085 31.9713C83.9121 30.6051 83.5139 29.0965 83.5139 27.4457C83.5139 26.1933 83.7457 25.0263 84.2093 23.9447C84.6728 22.8517 85.3088 21.8954 86.1171 21.0756C86.9373 20.2445 87.8883 19.5956 88.97 19.1288C90.0517 18.662 91.2048 18.4286 92.4291 18.4286C93.8912 18.4286 95.2404 18.7531 96.4766 19.402C97.7129 20.051 98.7411 20.9219 99.5613 22.0149L95.6386 24.0301C95.2226 23.5747 94.7292 23.2218 94.1587 22.9713C93.6 22.7208 93.0235 22.5956 92.4291 22.5956C91.5732 22.5956 90.8006 22.8233 90.1111 23.2787C89.4217 23.7227 88.8749 24.3147 88.4707 25.0548C88.0666 25.7834 87.8645 26.5804 87.8645 27.4457C87.8645 28.2996 88.0666 29.0965 88.4707 29.8366C88.8749 30.5652 89.4217 31.1515 90.1111 31.5956C90.8006 32.0396 91.5732 32.2616 92.4291 32.2616C93.0472 32.2616 93.6356 32.1364 94.1943 31.8859C94.753 31.624 95.2344 31.2768 95.6386 30.8441Z" fill="#101010"/>
<path d="M115.649 18.9068H120V35.9846H115.649L115.453 33.8669C114.966 34.6297 114.318 35.2502 113.51 35.7284C112.713 36.1952 111.768 36.4286 110.675 36.4286C109.355 36.4286 108.119 36.1895 106.966 35.7113C105.813 35.2331 104.797 34.5728 103.917 33.7303C103.049 32.8878 102.366 31.9144 101.866 30.81C101.379 29.7056 101.135 28.5216 101.135 27.2578C101.135 26.0396 101.367 24.8954 101.831 23.8252C102.306 22.755 102.966 21.8157 103.81 21.0073C104.654 20.199 105.629 19.5671 106.734 19.1117C107.84 18.6563 109.028 18.4286 110.3 18.4286C111.477 18.4286 112.529 18.6791 113.456 19.18C114.395 19.681 115.192 20.3185 115.846 21.0927L115.649 18.9068ZM110.568 32.4153C111.495 32.4153 112.315 32.1933 113.028 31.7493C113.742 31.3052 114.3 30.7075 114.704 29.9561C115.109 29.1933 115.311 28.3565 115.311 27.4457C115.311 26.5235 115.109 25.6867 114.704 24.9352C114.3 24.1724 113.736 23.569 113.01 23.125C112.297 22.681 111.483 22.4589 110.568 22.4589C109.652 22.4589 108.814 22.6867 108.054 23.1421C107.305 23.5861 106.704 24.1838 106.253 24.9352C105.813 25.6867 105.593 26.5235 105.593 27.4457C105.593 28.3679 105.819 29.2047 106.271 29.9561C106.722 30.7075 107.323 31.3052 108.071 31.7493C108.832 32.1933 109.664 32.4153 110.568 32.4153Z" fill="#101010"/>
<circle cx="18" cy="26.1429" r="18" fill="#101010"/>
<path d="M23.5271 30.3782L27.4286 32.3495C26.4777 33.5856 25.2681 34.5744 23.7998 35.3161C22.3454 36.0578 20.7653 36.4286 19.0593 36.4286C17.1295 36.4286 15.3675 35.9667 13.7734 35.0429C12.1932 34.119 10.9277 32.8829 9.97678 31.3345C9.03987 29.7731 8.57141 28.0491 8.57141 26.1624C8.57141 24.7311 8.8441 23.3974 9.38946 22.1613C9.93483 20.9122 10.683 19.8192 11.6339 18.8824C12.5987 17.9325 13.7174 17.1909 14.99 16.6574C16.2625 16.1239 17.6189 15.8572 19.0593 15.8572C20.7653 15.8572 22.3454 16.228 23.7998 16.9697C25.2681 17.7113 26.4777 18.7067 27.4286 19.9558L23.5271 21.9271C22.9398 21.2765 22.2545 20.7821 21.4715 20.4438C20.6884 20.0925 19.8843 19.9168 19.0593 19.9168C17.9126 19.9168 16.8708 20.2096 15.9339 20.7951C15.0109 21.3676 14.2768 22.1288 13.7314 23.0786C13.2 24.0155 12.9344 25.0434 12.9344 26.1624C12.9344 27.2684 13.207 28.2963 13.7524 29.2462C14.2978 30.183 15.0319 30.9377 15.9549 31.5102C16.8918 32.0827 17.9266 32.369 19.0593 32.369C19.9263 32.369 20.7513 32.1868 21.5344 31.8225C22.3175 31.4582 22.9817 30.9767 23.5271 30.3782Z" fill="white"/>
</svg>
