<svg width="60" height="60" viewBox="0 0 60 60" fill="none" xmlns="http://www.w3.org/2000/svg">
<circle cx="30" cy="30" r="30" fill="#101010"/>
<path d="M39.2118 37.0591L45.7142 40.3445C44.1294 42.4047 42.1134 44.0529 39.6662 45.289C37.2424 46.5251 34.6088 47.1431 31.7654 47.1431C28.5491 47.1431 25.6125 46.3733 22.9556 44.8336C20.322 43.2939 18.2128 41.2337 16.6279 38.653C15.0664 36.0507 14.2856 33.1773 14.2856 30.0328C14.2856 27.6473 14.7401 25.4245 15.6491 23.3643C16.558 21.2825 17.8049 19.4608 19.3897 17.8994C20.9979 16.3164 22.8624 15.0802 24.9832 14.1911C27.1041 13.302 29.3648 12.8574 31.7654 12.8574C34.6088 12.8574 37.2424 13.4755 39.6662 14.7116C42.1134 15.9477 44.1294 17.6067 45.7142 19.6885L39.2118 22.974C38.2329 21.8897 37.0909 21.0656 35.7857 20.5018C34.4806 19.9162 33.1405 19.6235 31.7654 19.6235C29.8543 19.6235 28.1179 20.1114 26.5564 21.0873C25.0182 22.0415 23.7946 23.3101 22.8857 24.8932C22 26.4546 21.5572 28.1678 21.5572 30.0328C21.5572 31.8761 22.0117 33.5893 22.9206 35.1724C23.8296 36.7338 25.0532 37.9916 26.5914 38.9458C28.1529 39.9 29.8776 40.3771 31.7654 40.3771C33.2104 40.3771 34.5854 40.0735 35.8906 39.4663C37.1958 38.859 38.3028 38.0567 39.2118 37.0591Z" fill="#F9F9FB"/>
</svg>
