<svg width="48" height="36" viewBox="0 0 48 36" fill="none" xmlns="http://www.w3.org/2000/svg">
<path d="M18.4927 36H0V24.0987C0 19.2829 0.460672 15.4934 1.38201 12.7303C2.34723 9.92763 4.10217 7.42105 6.64683 5.21053C9.19149 3 12.4381 1.26316 16.3867 0L20.0063 6.86842C16.3209 7.97368 13.6666 9.51316 12.0433 11.4868C10.4638 13.4605 9.63023 16.0855 9.54248 19.3618H18.4927V36ZM46.1334 36H27.6408V24.0987C27.6408 19.2434 28.1014 15.4342 29.0228 12.6711C29.988 9.9079 31.7429 7.42105 34.2876 5.21053C36.8761 3 40.1228 1.26316 44.0275 0L47.6471 6.86842C43.9617 7.97368 41.3073 9.51316 39.684 11.4868C38.1046 13.4605 37.271 16.0855 37.1832 19.3618H46.1334V36Z" fill="#101010"/>
</svg>
